<svg id="Layer_3" data-name="Layer 3" xmlns="http://www.w3.org/2000/svg" viewBox="0 0 227.21 213.63"><defs><style>.cls-1{fill:#005de8;}</style></defs><path d="M39.14,220.76H49.68c6.44,0,11.64,2.34,11.64,9.56,0,7-5.34,10.08-11.64,10.08H45.86v10.07H39.14Zm10.15,14.3c3.68,0,5.43-1.65,5.43-4.74s-1.89-4.22-5.43-4.22H45.86v9Z" transform="translate(-36.39 -37.39)"/><path d="M74.32,233.11H65.21v-5.25H81v22.61H74.32Zm-1.4-12.89a4.46,4.46,0,0,1,8.91,0c0,2.47-1.87,4.1-4.46,4.1S72.92,222.69,72.92,220.22Z" transform="translate(-36.39 -37.39)"/><path d="M94.44,238.72l-7.32-10.86h7.21l2.32,3.64c.68,1.27,1.59,2.62,2.34,3.88h.18c.59-1.26,1.31-2.62,1.88-3.89l2-3.63h7l-7.38,11.61,7.85,11h-7.22l-2.58-3.72c-.82-1.26-1.76-2.67-2.59-3.95H98c-.68,1.29-1.43,2.62-2.11,4l-2.23,3.71h-7Z" transform="translate(-36.39 -37.39)"/><path d="M112,239.15a11.54,11.54,0,0,1,11.77-11.84c7,0,10.65,4.71,10.65,10.85a19.58,19.58,0,0,1-.28,3H117v-4.5h12.62L128.52,238c0-3.63-1.57-5.54-4.55-5.54-3.31,0-5.49,2.25-5.49,6.74,0,4.69,2.56,6.76,7,6.76a12.43,12.43,0,0,0,5.82-1.57l2.23,4a17.39,17.39,0,0,1-9,2.64C117.47,251,112,246.67,112,239.15Z" transform="translate(-36.39 -37.39)"/><path d="M141.34,241.63V223.8h-7.12v-5.26h13.83V241.9a3.36,3.36,0,0,0,3.69,3.71,9.74,9.74,0,0,0,3.52-.74l1.49,4.93A18.82,18.82,0,0,1,150,251C144.3,251,141.34,247.37,141.34,241.63Z" transform="translate(-36.39 -37.39)"/><path d="M160.83,220.76h10.55c6.44,0,11.63,2.34,11.63,9.56,0,7-5.33,10.08-11.63,10.08h-3.82v10.07h-6.73ZM171,235.06c3.68,0,5.43-1.65,5.43-4.74s-1.89-4.22-5.43-4.22h-3.43v9Z" transform="translate(-36.39 -37.39)"/><path d="M185.43,239.15a11.54,11.54,0,0,1,11.77-11.84c7,0,10.65,4.71,10.65,10.85a19.58,19.58,0,0,1-.28,3H190.41v-4.5H203L202,238c0-3.63-1.57-5.54-4.55-5.54-3.31,0-5.49,2.25-5.49,6.74,0,4.69,2.56,6.76,7,6.76a12.43,12.43,0,0,0,5.82-1.57l2.23,4a17.39,17.39,0,0,1-9,2.64C190.92,251,185.43,246.67,185.43,239.15Z" transform="translate(-36.39 -37.39)"/><path d="M211.53,244.2c0-5.07,4.19-7.65,14.88-8.29-.24-2-1.76-3.26-4.8-3.26-2.18,0-4.35.84-6.89,2.11l-2.4-4.39a21.52,21.52,0,0,1,10.59-3.06c6.36,0,10.21,3.3,10.21,10.24v12.92h-5.48l-.49-2.54H227a13.85,13.85,0,0,1-8,3.09C214.39,251,211.53,248,211.53,244.2Zm14.88-.54V240c-6.66.33-8.44,1.78-8.44,3.71,0,1.45,1.22,2.16,3.12,2.16A8.63,8.63,0,0,0,226.41,243.66Z" transform="translate(-36.39 -37.39)"/><path d="M238.45,218.54h6.71V237h.19l8.31-9.09H261l-15.82,16.93v5.68h-6.71Zm9.42,21.68,3.85-4.17,10,14.42h-7.29Z" transform="translate(-36.39 -37.39)"/><path class="cls-1" d="M125.54,189l24.46-52L104.82,37.39,36.39,189Z" transform="translate(-36.39 -37.39)"/><path class="cls-1" d="M174.46,189l-24.46-52,45.18-99.68L263.61,189Z" transform="translate(-36.39 -37.39)"/></svg>